<mxfile host="app.diagrams.net" agent="Mozilla/5.0 (X11; Linux x86_64; rv:133.0) Gecko/20100101 Firefox/133.0" version="25.0.3" pages="3">
  <diagram name="Seite-1" id="yFSsRCoyJOWFMvKDHY3f">
    <mxGraphModel dx="783" dy="445" grid="1" gridSize="10" guides="1" tooltips="1" connect="1" arrows="1" fold="1" page="1" pageScale="1" pageWidth="850" pageHeight="1100" math="1" shadow="0">
      <root>
        <mxCell id="0" />
        <mxCell id="1" parent="0" />
        <mxCell id="5_-OCHtb38WC5sSBc70F-1" value="" style="endArrow=classic;html=1;rounded=0;" edge="1" parent="1">
          <mxGeometry width="50" height="50" relative="1" as="geometry">
            <mxPoint x="400" y="400" as="sourcePoint" />
            <mxPoint x="560" y="400" as="targetPoint" />
          </mxGeometry>
        </mxCell>
        <mxCell id="5_-OCHtb38WC5sSBc70F-2" value="" style="endArrow=classic;html=1;rounded=0;" edge="1" parent="1">
          <mxGeometry width="50" height="50" relative="1" as="geometry">
            <mxPoint x="400" y="400" as="sourcePoint" />
            <mxPoint x="450" y="350" as="targetPoint" />
          </mxGeometry>
        </mxCell>
        <mxCell id="5_-OCHtb38WC5sSBc70F-3" value="" style="endArrow=classic;html=1;rounded=0;" edge="1" parent="1">
          <mxGeometry width="50" height="50" relative="1" as="geometry">
            <mxPoint x="451" y="352" as="sourcePoint" />
            <mxPoint x="560" y="400" as="targetPoint" />
          </mxGeometry>
        </mxCell>
        <mxCell id="5_-OCHtb38WC5sSBc70F-4" value="&lt;font style=&quot;font-size: 14px;&quot;&gt;$$\mathbf{k}$$&lt;/font&gt;" style="text;html=1;align=center;verticalAlign=middle;resizable=0;points=[];autosize=1;strokeColor=none;fillColor=none;" vertex="1" parent="1">
          <mxGeometry x="409" y="400" width="120" height="30" as="geometry" />
        </mxCell>
        <mxCell id="5_-OCHtb38WC5sSBc70F-5" value="&lt;font style=&quot;font-size: 14px;&quot;&gt;$$\mathbf{q}_2$$&lt;/font&gt;" style="text;html=1;align=center;verticalAlign=middle;resizable=0;points=[];autosize=1;strokeColor=none;fillColor=none;" vertex="1" parent="1">
          <mxGeometry x="445" y="350" width="130" height="30" as="geometry" />
        </mxCell>
        <mxCell id="5_-OCHtb38WC5sSBc70F-6" value="&lt;font style=&quot;font-size: 14px;&quot;&gt;$$\mathbf{q}_1$$&lt;/font&gt;" style="text;html=1;align=center;verticalAlign=middle;resizable=0;points=[];autosize=1;strokeColor=none;fillColor=none;" vertex="1" parent="1">
          <mxGeometry x="344" y="355" width="130" height="30" as="geometry" />
        </mxCell>
        <mxCell id="5_-OCHtb38WC5sSBc70F-7" value="" style="endArrow=classic;html=1;rounded=0;" edge="1" parent="1">
          <mxGeometry width="50" height="50" relative="1" as="geometry">
            <mxPoint x="400" y="520" as="sourcePoint" />
            <mxPoint x="560" y="520" as="targetPoint" />
          </mxGeometry>
        </mxCell>
        <mxCell id="5_-OCHtb38WC5sSBc70F-8" value="" style="endArrow=classic;html=1;rounded=0;" edge="1" parent="1">
          <mxGeometry width="50" height="50" relative="1" as="geometry">
            <mxPoint x="400" y="520" as="sourcePoint" />
            <mxPoint x="520" y="480" as="targetPoint" />
          </mxGeometry>
        </mxCell>
        <mxCell id="5_-OCHtb38WC5sSBc70F-9" value="" style="endArrow=classic;html=1;rounded=0;" edge="1" parent="1">
          <mxGeometry width="50" height="50" relative="1" as="geometry">
            <mxPoint x="520" y="480" as="sourcePoint" />
            <mxPoint x="560" y="520" as="targetPoint" />
          </mxGeometry>
        </mxCell>
        <mxCell id="5_-OCHtb38WC5sSBc70F-10" value="&lt;font style=&quot;font-size: 14px;&quot;&gt;$$\mathbf{k}$$&lt;/font&gt;" style="text;html=1;align=center;verticalAlign=middle;resizable=0;points=[];autosize=1;strokeColor=none;fillColor=none;" vertex="1" parent="1">
          <mxGeometry x="418.5" y="520" width="120" height="30" as="geometry" />
        </mxCell>
        <mxCell id="5_-OCHtb38WC5sSBc70F-11" value="&lt;font style=&quot;font-size: 14px;&quot;&gt;$$\mathbf{q}_2$$&lt;/font&gt;" style="text;html=1;align=center;verticalAlign=middle;resizable=0;points=[];autosize=1;strokeColor=none;fillColor=none;" vertex="1" parent="1">
          <mxGeometry x="479" y="473" width="130" height="30" as="geometry" />
        </mxCell>
        <mxCell id="5_-OCHtb38WC5sSBc70F-12" value="&lt;font style=&quot;font-size: 14px;&quot;&gt;$$\mathbf{q}_1$$&lt;/font&gt;" style="text;html=1;align=center;verticalAlign=middle;resizable=0;points=[];autosize=1;strokeColor=none;fillColor=none;" vertex="1" parent="1">
          <mxGeometry x="391.5" y="472" width="130" height="30" as="geometry" />
        </mxCell>
      </root>
    </mxGraphModel>
  </diagram>
  <diagram id="wIzHzwjPp24e5vW_TuoP" name="Seite-2">
    <mxGraphModel dx="1372" dy="777" grid="1" gridSize="10" guides="1" tooltips="1" connect="1" arrows="1" fold="1" page="1" pageScale="1" pageWidth="850" pageHeight="1100" math="1" shadow="0">
      <root>
        <mxCell id="0" />
        <mxCell id="1" parent="0" />
        <mxCell id="0adoQRUgtKrrgAeJXaVl-1" value="" style="endArrow=none;dashed=1;html=1;dashPattern=1 3;strokeWidth=2;rounded=0;" edge="1" parent="1">
          <mxGeometry width="50" height="50" relative="1" as="geometry">
            <mxPoint x="200" y="240" as="sourcePoint" />
            <mxPoint x="360" y="240" as="targetPoint" />
          </mxGeometry>
        </mxCell>
        <mxCell id="7xNlxwfX-PVVsaftETdH-1" value="" style="endArrow=none;dashed=1;html=1;dashPattern=1 3;strokeWidth=2;rounded=0;" edge="1" parent="1">
          <mxGeometry width="50" height="50" relative="1" as="geometry">
            <mxPoint x="200" y="360" as="sourcePoint" />
            <mxPoint x="360" y="360" as="targetPoint" />
          </mxGeometry>
        </mxCell>
        <mxCell id="7xNlxwfX-PVVsaftETdH-2" value="&lt;font style=&quot;font-size: 15px;&quot;&gt;$$\mathbf{q_1}$$&lt;/font&gt;" style="ellipse;whiteSpace=wrap;html=1;aspect=fixed;" vertex="1" parent="1">
          <mxGeometry x="210" y="310" width="40" height="40" as="geometry" />
        </mxCell>
        <mxCell id="7xNlxwfX-PVVsaftETdH-3" value="&lt;font style=&quot;font-size: 15px;&quot;&gt;$$\mathbf{q_2}$$&lt;/font&gt;" style="ellipse;whiteSpace=wrap;html=1;aspect=fixed;" vertex="1" parent="1">
          <mxGeometry x="310" y="310" width="40" height="40" as="geometry" />
        </mxCell>
        <mxCell id="7xNlxwfX-PVVsaftETdH-4" value="&lt;font style=&quot;font-size: 18px;&quot;&gt;$$l$$&lt;/font&gt;" style="text;html=1;align=center;verticalAlign=middle;resizable=0;points=[];autosize=1;strokeColor=none;fillColor=none;" vertex="1" parent="1">
          <mxGeometry x="140" y="283" width="70" height="40" as="geometry" />
        </mxCell>
        <mxCell id="7xNlxwfX-PVVsaftETdH-5" value="&lt;font style=&quot;font-size: 18px;&quot;&gt;$$l+1$$&lt;/font&gt;" style="text;html=1;align=center;verticalAlign=middle;resizable=0;points=[];autosize=1;strokeColor=none;fillColor=none;" vertex="1" parent="1">
          <mxGeometry x="130" y="160" width="90" height="40" as="geometry" />
        </mxCell>
        <mxCell id="7xNlxwfX-PVVsaftETdH-6" value="&lt;font style=&quot;font-size: 18px;&quot;&gt;$$l-1$$&lt;/font&gt;" style="text;html=1;align=center;verticalAlign=middle;resizable=0;points=[];autosize=1;strokeColor=none;fillColor=none;" vertex="1" parent="1">
          <mxGeometry x="130" y="400" width="80" height="40" as="geometry" />
        </mxCell>
        <mxCell id="7xNlxwfX-PVVsaftETdH-7" value="&lt;font style=&quot;font-size: 15px;&quot;&gt;$$\mathbf{k}$$&lt;/font&gt;" style="ellipse;whiteSpace=wrap;html=1;aspect=fixed;" vertex="1" parent="1">
          <mxGeometry x="260" y="250" width="40" height="40" as="geometry" />
        </mxCell>
        <mxCell id="7xNlxwfX-PVVsaftETdH-8" value="&lt;font style=&quot;font-size: 15px;&quot;&gt;$$\text{a) Intra-shell}\hspace{.25cm}\text{coupling}$$&lt;/font&gt;" style="text;html=1;align=center;verticalAlign=middle;resizable=0;points=[];autosize=1;strokeColor=none;fillColor=none;" vertex="1" parent="1">
          <mxGeometry x="90" y="120" width="380" height="30" as="geometry" />
        </mxCell>
        <mxCell id="7xNlxwfX-PVVsaftETdH-9" value="" style="endArrow=none;html=1;rounded=0;entryX=0.05;entryY=0.696;entryDx=0;entryDy=0;entryPerimeter=0;exitX=0.654;exitY=0.008;exitDx=0;exitDy=0;exitPerimeter=0;" edge="1" parent="1" source="7xNlxwfX-PVVsaftETdH-2" target="7xNlxwfX-PVVsaftETdH-7">
          <mxGeometry width="50" height="50" relative="1" as="geometry">
            <mxPoint x="240" y="310" as="sourcePoint" />
            <mxPoint x="290" y="260" as="targetPoint" />
          </mxGeometry>
        </mxCell>
        <mxCell id="7xNlxwfX-PVVsaftETdH-11" value="" style="endArrow=none;html=1;rounded=0;entryX=0.262;entryY=0.062;entryDx=0;entryDy=0;entryPerimeter=0;exitX=0.967;exitY=0.696;exitDx=0;exitDy=0;exitPerimeter=0;" edge="1" parent="1" source="7xNlxwfX-PVVsaftETdH-7" target="7xNlxwfX-PVVsaftETdH-3">
          <mxGeometry width="50" height="50" relative="1" as="geometry">
            <mxPoint x="300" y="282" as="sourcePoint" />
            <mxPoint x="326" y="250" as="targetPoint" />
          </mxGeometry>
        </mxCell>
        <mxCell id="7xNlxwfX-PVVsaftETdH-12" value="" style="endArrow=none;dashed=1;html=1;dashPattern=1 3;strokeWidth=2;rounded=0;" edge="1" parent="1">
          <mxGeometry width="50" height="50" relative="1" as="geometry">
            <mxPoint x="440" y="240" as="sourcePoint" />
            <mxPoint x="600" y="240" as="targetPoint" />
          </mxGeometry>
        </mxCell>
        <mxCell id="7xNlxwfX-PVVsaftETdH-13" value="" style="endArrow=none;dashed=1;html=1;dashPattern=1 3;strokeWidth=2;rounded=0;" edge="1" parent="1">
          <mxGeometry width="50" height="50" relative="1" as="geometry">
            <mxPoint x="440" y="360" as="sourcePoint" />
            <mxPoint x="600" y="360" as="targetPoint" />
          </mxGeometry>
        </mxCell>
        <mxCell id="7xNlxwfX-PVVsaftETdH-14" value="&lt;font style=&quot;font-size: 15px;&quot;&gt;$$\mathbf{q_1}$$&lt;/font&gt;" style="ellipse;whiteSpace=wrap;html=1;aspect=fixed;" vertex="1" parent="1">
          <mxGeometry x="450" y="272.52" width="40" height="40" as="geometry" />
        </mxCell>
        <mxCell id="7xNlxwfX-PVVsaftETdH-15" value="&lt;font style=&quot;font-size: 15px;&quot;&gt;$$\mathbf{q_2}$$&lt;/font&gt;" style="ellipse;whiteSpace=wrap;html=1;aspect=fixed;" vertex="1" parent="1">
          <mxGeometry x="550" y="272.52" width="40" height="40" as="geometry" />
        </mxCell>
        <mxCell id="7xNlxwfX-PVVsaftETdH-19" value="&lt;font style=&quot;font-size: 15px;&quot;&gt;$$\mathbf{k}$$&lt;/font&gt;" style="ellipse;whiteSpace=wrap;html=1;aspect=fixed;" vertex="1" parent="1">
          <mxGeometry x="500" y="180" width="40" height="40" as="geometry" />
        </mxCell>
        <mxCell id="7xNlxwfX-PVVsaftETdH-20" value="&lt;font style=&quot;font-size: 15px;&quot;&gt;$$\text{b) Inter-shell}\hspace{.25cm}\text{coupling}$$&lt;/font&gt;" style="text;html=1;align=center;verticalAlign=middle;resizable=0;points=[];autosize=1;strokeColor=none;fillColor=none;" vertex="1" parent="1">
          <mxGeometry x="455" y="120" width="370" height="30" as="geometry" />
        </mxCell>
        <mxCell id="7xNlxwfX-PVVsaftETdH-21" value="" style="endArrow=none;html=1;rounded=0;entryX=0.05;entryY=0.696;entryDx=0;entryDy=0;entryPerimeter=0;exitX=0.654;exitY=0.008;exitDx=0;exitDy=0;exitPerimeter=0;" edge="1" parent="1" source="7xNlxwfX-PVVsaftETdH-14" target="7xNlxwfX-PVVsaftETdH-19">
          <mxGeometry width="50" height="50" relative="1" as="geometry">
            <mxPoint x="480" y="310" as="sourcePoint" />
            <mxPoint x="530" y="260" as="targetPoint" />
          </mxGeometry>
        </mxCell>
        <mxCell id="7xNlxwfX-PVVsaftETdH-22" value="" style="endArrow=none;html=1;rounded=0;entryX=0.262;entryY=0.062;entryDx=0;entryDy=0;entryPerimeter=0;exitX=0.967;exitY=0.696;exitDx=0;exitDy=0;exitPerimeter=0;" edge="1" parent="1" source="7xNlxwfX-PVVsaftETdH-19" target="7xNlxwfX-PVVsaftETdH-15">
          <mxGeometry width="50" height="50" relative="1" as="geometry">
            <mxPoint x="540" y="282" as="sourcePoint" />
            <mxPoint x="566" y="250" as="targetPoint" />
          </mxGeometry>
        </mxCell>
        <mxCell id="7xNlxwfX-PVVsaftETdH-23" value="" style="endArrow=classic;html=1;rounded=0;" edge="1" parent="1">
          <mxGeometry width="50" height="50" relative="1" as="geometry">
            <mxPoint x="849" y="181" as="sourcePoint" />
            <mxPoint x="849" y="411" as="targetPoint" />
          </mxGeometry>
        </mxCell>
        <mxCell id="7xNlxwfX-PVVsaftETdH-24" value="&lt;font style=&quot;font-size: 18px;&quot;&gt;$$\lambda\uparrow$$&lt;/font&gt;" style="text;html=1;align=center;verticalAlign=middle;resizable=0;points=[];autosize=1;strokeColor=none;fillColor=none;" vertex="1" parent="1">
          <mxGeometry x="784" y="273.52" width="200" height="40" as="geometry" />
        </mxCell>
        <mxCell id="7xNlxwfX-PVVsaftETdH-25" value="" style="endArrow=none;dashed=1;html=1;dashPattern=1 3;strokeWidth=2;rounded=0;" edge="1" parent="1">
          <mxGeometry width="50" height="50" relative="1" as="geometry">
            <mxPoint x="670" y="240" as="sourcePoint" />
            <mxPoint x="830" y="240" as="targetPoint" />
          </mxGeometry>
        </mxCell>
        <mxCell id="7xNlxwfX-PVVsaftETdH-26" value="" style="endArrow=none;dashed=1;html=1;dashPattern=1 3;strokeWidth=2;rounded=0;" edge="1" parent="1">
          <mxGeometry width="50" height="50" relative="1" as="geometry">
            <mxPoint x="670" y="360" as="sourcePoint" />
            <mxPoint x="830" y="360" as="targetPoint" />
          </mxGeometry>
        </mxCell>
        <mxCell id="7xNlxwfX-PVVsaftETdH-27" value="&lt;font style=&quot;font-size: 15px;&quot;&gt;$$\mathbf{q_1}$$&lt;/font&gt;" style="ellipse;whiteSpace=wrap;html=1;aspect=fixed;" vertex="1" parent="1">
          <mxGeometry x="680" y="272.52" width="40" height="40" as="geometry" />
        </mxCell>
        <mxCell id="7xNlxwfX-PVVsaftETdH-28" value="&lt;font style=&quot;font-size: 15px;&quot;&gt;$$\mathbf{k}$$&lt;/font&gt;" style="ellipse;whiteSpace=wrap;html=1;aspect=fixed;" vertex="1" parent="1">
          <mxGeometry x="780" y="272.52" width="40" height="40" as="geometry" />
        </mxCell>
        <mxCell id="7xNlxwfX-PVVsaftETdH-29" value="&lt;font style=&quot;font-size: 15px;&quot;&gt;$$\mathbf{q_2}$$&lt;/font&gt;" style="ellipse;whiteSpace=wrap;html=1;aspect=fixed;" vertex="1" parent="1">
          <mxGeometry x="730" y="180" width="40" height="40" as="geometry" />
        </mxCell>
        <mxCell id="7xNlxwfX-PVVsaftETdH-30" value="" style="endArrow=none;html=1;rounded=0;entryX=0.05;entryY=0.696;entryDx=0;entryDy=0;entryPerimeter=0;exitX=0.654;exitY=0.008;exitDx=0;exitDy=0;exitPerimeter=0;" edge="1" parent="1" source="7xNlxwfX-PVVsaftETdH-27" target="7xNlxwfX-PVVsaftETdH-29">
          <mxGeometry width="50" height="50" relative="1" as="geometry">
            <mxPoint x="710" y="310" as="sourcePoint" />
            <mxPoint x="760" y="260" as="targetPoint" />
          </mxGeometry>
        </mxCell>
        <mxCell id="7xNlxwfX-PVVsaftETdH-31" value="" style="endArrow=none;html=1;rounded=0;entryX=0.262;entryY=0.062;entryDx=0;entryDy=0;entryPerimeter=0;exitX=0.967;exitY=0.696;exitDx=0;exitDy=0;exitPerimeter=0;" edge="1" parent="1" source="7xNlxwfX-PVVsaftETdH-29" target="7xNlxwfX-PVVsaftETdH-28">
          <mxGeometry width="50" height="50" relative="1" as="geometry">
            <mxPoint x="770" y="282" as="sourcePoint" />
            <mxPoint x="796" y="250" as="targetPoint" />
          </mxGeometry>
        </mxCell>
      </root>
    </mxGraphModel>
  </diagram>
  <diagram id="r_1yASK8a4UOWJRBdg51" name="Seite-3">
    <mxGraphModel dx="1372" dy="777" grid="1" gridSize="10" guides="1" tooltips="1" connect="1" arrows="1" fold="1" page="1" pageScale="1" pageWidth="850" pageHeight="1100" math="1" shadow="0">
      <root>
        <mxCell id="0" />
        <mxCell id="1" parent="0" />
        <mxCell id="tnqD8kgLJXiq5f1NhSCP-1" value="" style="verticalLabelPosition=bottom;verticalAlign=top;html=1;shape=mxgraph.basic.arc;startAngle=0.3;endAngle=0.1;fillStyle=auto;" vertex="1" parent="1">
          <mxGeometry x="130" y="410" width="100" height="100" as="geometry" />
        </mxCell>
        <mxCell id="tnqD8kgLJXiq5f1NhSCP-2" value="" style="endArrow=classic;html=1;rounded=0;" edge="1" parent="1">
          <mxGeometry width="50" height="50" relative="1" as="geometry">
            <mxPoint x="209" y="419" as="sourcePoint" />
            <mxPoint x="219" y="429" as="targetPoint" />
          </mxGeometry>
        </mxCell>
        <mxCell id="tnqD8kgLJXiq5f1NhSCP-3" value="&lt;font style=&quot;font-size: 23px;&quot;&gt;$$=$$&lt;/font&gt;" style="text;html=1;align=center;verticalAlign=middle;resizable=0;points=[];autosize=1;strokeColor=none;fillColor=none;" vertex="1" parent="1">
          <mxGeometry x="230" y="440" width="90" height="40" as="geometry" />
        </mxCell>
        <mxCell id="tnqD8kgLJXiq5f1NhSCP-4" value="" style="pointerEvents=1;verticalLabelPosition=bottom;shadow=0;dashed=0;align=center;html=1;verticalAlign=top;shape=mxgraph.electrical.waveforms.sine_wave;" vertex="1" parent="1">
          <mxGeometry x="330" y="430" width="90" height="66.18" as="geometry" />
        </mxCell>
        <mxCell id="tnqD8kgLJXiq5f1NhSCP-5" value="" style="pointerEvents=1;verticalLabelPosition=bottom;shadow=0;dashed=0;align=center;html=1;verticalAlign=top;shape=mxgraph.electrical.waveforms.sine_wave;rotation=90;" vertex="1" parent="1">
          <mxGeometry x="510" y="426.90999999999997" width="90" height="66.18" as="geometry" />
        </mxCell>
        <mxCell id="tnqD8kgLJXiq5f1NhSCP-6" value="" style="endArrow=classic;startArrow=classic;html=1;rounded=0;" edge="1" parent="1">
          <mxGeometry width="50" height="50" relative="1" as="geometry">
            <mxPoint x="320" y="520" as="sourcePoint" />
            <mxPoint x="430" y="520" as="targetPoint" />
          </mxGeometry>
        </mxCell>
        <mxCell id="tnqD8kgLJXiq5f1NhSCP-7" value="" style="endArrow=classic;startArrow=classic;html=1;rounded=0;" edge="1" parent="1">
          <mxGeometry width="50" height="50" relative="1" as="geometry">
            <mxPoint x="600" y="410" as="sourcePoint" />
            <mxPoint x="600" y="510" as="targetPoint" />
          </mxGeometry>
        </mxCell>
        <mxCell id="tnqD8kgLJXiq5f1NhSCP-8" value="&lt;font style=&quot;font-size: 18px;&quot;&gt;$$\lambda_x$$&lt;/font&gt;" style="text;html=1;align=center;verticalAlign=middle;resizable=0;points=[];autosize=1;strokeColor=none;fillColor=none;" vertex="1" parent="1">
          <mxGeometry x="300" y="520" width="150" height="40" as="geometry" />
        </mxCell>
        <mxCell id="tnqD8kgLJXiq5f1NhSCP-9" value="&lt;font style=&quot;font-size: 18px;&quot;&gt;$$\lambda_y$$&lt;/font&gt;" style="text;html=1;align=center;verticalAlign=middle;resizable=0;points=[];autosize=1;strokeColor=none;fillColor=none;" vertex="1" parent="1">
          <mxGeometry x="550" y="435" width="150" height="40" as="geometry" />
        </mxCell>
        <mxCell id="tnqD8kgLJXiq5f1NhSCP-10" value="&lt;font style=&quot;font-size: 23px;&quot;&gt;$$+$$&lt;/font&gt;" style="text;html=1;align=center;verticalAlign=middle;resizable=0;points=[];autosize=1;strokeColor=none;fillColor=none;" vertex="1" parent="1">
          <mxGeometry x="430" y="443.09" width="90" height="40" as="geometry" />
        </mxCell>
        <mxCell id="tnqD8kgLJXiq5f1NhSCP-11" value="$$l=1$$" style="text;html=1;align=center;verticalAlign=middle;resizable=0;points=[];autosize=1;strokeColor=none;fillColor=none;" vertex="1" parent="1">
          <mxGeometry x="90" y="550" width="70" height="30" as="geometry" />
        </mxCell>
        <mxCell id="tnqD8kgLJXiq5f1NhSCP-12" value="" style="verticalLabelPosition=bottom;verticalAlign=top;html=1;shape=mxgraph.basic.arc;startAngle=0.3;endAngle=0.1;fillStyle=auto;" vertex="1" parent="1">
          <mxGeometry x="150" y="580" width="50" height="50" as="geometry" />
        </mxCell>
        <mxCell id="tnqD8kgLJXiq5f1NhSCP-13" value="" style="endArrow=classic;html=1;rounded=0;" edge="1" parent="1">
          <mxGeometry width="50" height="50" relative="1" as="geometry">
            <mxPoint x="188" y="583" as="sourcePoint" />
            <mxPoint x="198" y="593" as="targetPoint" />
          </mxGeometry>
        </mxCell>
        <mxCell id="tnqD8kgLJXiq5f1NhSCP-14" value="&lt;font style=&quot;font-size: 23px;&quot;&gt;$$=$$&lt;/font&gt;" style="text;html=1;align=center;verticalAlign=middle;resizable=0;points=[];autosize=1;strokeColor=none;fillColor=none;" vertex="1" parent="1">
          <mxGeometry x="210" y="590" width="90" height="40" as="geometry" />
        </mxCell>
        <mxCell id="tnqD8kgLJXiq5f1NhSCP-15" value="" style="pointerEvents=1;verticalLabelPosition=bottom;shadow=0;dashed=0;align=center;html=1;verticalAlign=top;shape=mxgraph.electrical.waveforms.sine_wave;" vertex="1" parent="1">
          <mxGeometry x="345" y="580" width="40" height="66.18" as="geometry" />
        </mxCell>
        <mxCell id="tnqD8kgLJXiq5f1NhSCP-16" value="" style="pointerEvents=1;verticalLabelPosition=bottom;shadow=0;dashed=0;align=center;html=1;verticalAlign=top;shape=mxgraph.electrical.waveforms.sine_wave;rotation=90;" vertex="1" parent="1">
          <mxGeometry x="540" y="580" width="40" height="66.18" as="geometry" />
        </mxCell>
        <mxCell id="tnqD8kgLJXiq5f1NhSCP-17" value="" style="endArrow=classic;startArrow=classic;html=1;rounded=0;" edge="1" parent="1">
          <mxGeometry width="50" height="50" relative="1" as="geometry">
            <mxPoint x="340" y="646.18" as="sourcePoint" />
            <mxPoint x="390" y="646.18" as="targetPoint" />
          </mxGeometry>
        </mxCell>
        <mxCell id="tnqD8kgLJXiq5f1NhSCP-18" value="" style="endArrow=classic;startArrow=classic;html=1;rounded=0;" edge="1" parent="1">
          <mxGeometry width="50" height="50" relative="1" as="geometry">
            <mxPoint x="599" y="588.09" as="sourcePoint" />
            <mxPoint x="599" y="638.09" as="targetPoint" />
          </mxGeometry>
        </mxCell>
        <mxCell id="tnqD8kgLJXiq5f1NhSCP-19" value="&lt;font style=&quot;font-size: 18px;&quot;&gt;$$0.5\lambda_x$$&lt;/font&gt;" style="text;html=1;align=center;verticalAlign=middle;resizable=0;points=[];autosize=1;strokeColor=none;fillColor=none;" vertex="1" parent="1">
          <mxGeometry x="280" y="646.1800000000001" width="170" height="40" as="geometry" />
        </mxCell>
        <mxCell id="tnqD8kgLJXiq5f1NhSCP-20" value="&lt;font style=&quot;font-size: 23px;&quot;&gt;$$+$$&lt;/font&gt;" style="text;html=1;align=center;verticalAlign=middle;resizable=0;points=[];autosize=1;strokeColor=none;fillColor=none;" vertex="1" parent="1">
          <mxGeometry x="430" y="596.18" width="90" height="40" as="geometry" />
        </mxCell>
        <mxCell id="tnqD8kgLJXiq5f1NhSCP-21" value="&lt;font style=&quot;font-size: 18px;&quot;&gt;$$0.5 \lambda_y$$&lt;/font&gt;" style="text;html=1;align=center;verticalAlign=middle;resizable=0;points=[];autosize=1;strokeColor=none;fillColor=none;" vertex="1" parent="1">
          <mxGeometry x="545" y="596.1800000000001" width="180" height="40" as="geometry" />
        </mxCell>
        <mxCell id="tnqD8kgLJXiq5f1NhSCP-22" value="$$l=0$$" style="text;html=1;align=center;verticalAlign=middle;resizable=0;points=[];autosize=1;strokeColor=none;fillColor=none;" vertex="1" parent="1">
          <mxGeometry x="90" y="370" width="70" height="30" as="geometry" />
        </mxCell>
        <mxCell id="tnqD8kgLJXiq5f1NhSCP-23" value="&lt;font style=&quot;font-size: 22px;&quot;&gt;$$\vdots$$&lt;/font&gt;" style="text;html=1;align=center;verticalAlign=middle;resizable=0;points=[];autosize=1;strokeColor=none;fillColor=none;" vertex="1" parent="1">
          <mxGeometry x="345" y="700" width="130" height="40" as="geometry" />
        </mxCell>
      </root>
    </mxGraphModel>
  </diagram>
</mxfile>
